<svg width="120" height="32" viewBox="0 0 120 32" fill="none" xmlns="http://www.w3.org/2000/svg">
<g clip-path="url(#clip0_1_266)">
<path d="M15.8548 30.5912C15.8548 31.0403 15.606 31.2809 15.143 31.2809H1.73958C1.25958 31.2809 1.02773 31.0403 1.02773 30.5912C1.02773 30.142 1.25958 29.9014 1.73958 29.9014H15.1423C15.606 29.9014 15.8548 30.142 15.8548 30.5912ZM15.2589 18.9979C15.2589 19.4631 15.0101 19.6877 14.5464 19.6877H2.25344C1.77279 19.6877 1.54159 19.4631 1.54159 18.9979C1.54159 18.5328 1.77279 18.3082 2.25344 18.3082H14.5457C15.0101 18.3082 15.2589 18.5488 15.2589 18.9979ZM14.3634 24.6426C14.3634 25.1078 14.1485 25.3324 13.7173 25.3324H2.83308C2.40258 25.3324 2.18701 25.1078 2.18701 24.6426C2.18701 24.2254 2.40258 24.0175 2.83308 24.0175H13.718C14.1491 24.0175 14.3634 24.2261 14.3634 24.6426Z" fill="white"/>
<path d="M24.7246 25.9215C24.7246 26.0554 24.6725 26.2554 24.5865 26.5226C24.1033 27.9254 23.6031 29.061 23.1199 29.9287C22.6711 30.7638 22.2745 31.3649 21.9469 31.7488C21.7743 31.916 21.6187 31.9993 21.4806 31.9993C20.9283 31.9993 20.6697 31.7488 20.6697 31.2816C20.6697 31.2149 20.7212 31.0477 20.8423 30.8138C21.3249 30.196 21.7222 29.5949 22.0153 29.0104C22.481 28.1754 22.9642 27.0571 23.4475 25.6709C23.551 25.4037 23.7405 25.2697 23.9822 25.2697C24.4654 25.2864 24.707 25.5043 24.7246 25.9215ZM21.9638 21.4971C22.6881 21.9642 23.396 22.5154 24.0512 23.1165C24.0857 23.2498 24.1202 23.3671 24.1202 23.4504C24.1202 23.8509 23.8962 24.0348 23.4475 24.0348C23.3263 24.0348 23.2058 24.0015 23.1023 23.9015C22.4119 23.4004 21.7046 22.8999 20.9452 22.4154C20.8417 22.2315 20.8072 22.0982 20.8072 22.0149C20.8072 21.581 21.0488 21.3638 21.5496 21.3638C21.6877 21.3638 21.8258 21.4131 21.9638 21.4971ZM22.7056 17.5231C23.3094 18.0243 23.8968 18.5754 24.4485 19.2099C24.483 19.3438 24.5175 19.4438 24.5175 19.5437C24.5175 19.9443 24.2928 20.1282 23.8441 20.1282C23.7236 20.1282 23.6031 20.0949 23.4989 19.9949C22.9297 19.4604 22.3259 18.9426 21.6877 18.4255C21.5835 18.2582 21.5496 18.1249 21.5496 18.0416C21.5496 17.6078 21.7912 17.3905 22.2921 17.3905C22.4295 17.3905 22.5682 17.4398 22.7056 17.5231ZM28.1582 28.8604C28.4688 29.245 28.7619 29.6788 29.0381 30.1627C29.0726 30.2966 29.1071 30.4132 29.1071 30.4965H32.0581C32.144 30.4132 32.2306 30.3293 32.3166 30.2293C32.6097 29.8621 32.8858 29.4609 33.145 29.0604C33.2655 28.8931 33.4381 28.7931 33.6797 28.7931C33.8523 28.7931 34.0073 28.8598 34.163 28.9937C34.2835 29.127 34.3525 29.2776 34.3525 29.4442C34.3525 29.5949 34.3011 29.7281 34.232 29.8454C34.0594 30.0787 33.8699 30.2959 33.6973 30.4965H36.1129C36.5096 30.4965 36.7167 30.6805 36.7167 31.081C36.7167 31.5148 36.5096 31.7321 36.1129 31.7321H25.1219C24.7083 31.7321 24.5182 31.5148 24.5182 31.081C24.5182 30.6805 24.7083 30.4965 25.1219 30.4965H27.7622C27.5551 30.2293 27.348 29.9787 27.1409 29.7115C27.0549 29.5609 27.0204 29.4442 27.0204 29.3776C27.0204 28.9437 27.2451 28.7265 27.6932 28.7265C27.8312 28.7265 27.9862 28.7765 28.1595 28.8598L28.1582 28.8604ZM36.3194 23.7183C36.3194 24.1188 36.1123 24.3027 35.6981 24.3027H25.3284C24.9141 24.3027 24.7246 24.1188 24.7246 23.7183C24.7246 23.3177 24.9141 23.1171 25.3284 23.1171H35.6981C36.1123 23.1171 36.3194 23.3177 36.3194 23.7183ZM28.4343 17.5731V17.2559C28.4343 16.872 28.6245 16.6714 29.0381 16.6714C29.4868 16.6714 29.7115 16.872 29.7115 17.2559V17.5731H31.4537V17.2559C31.4537 16.872 31.6608 16.6714 32.0743 16.6714C32.5231 16.6714 32.7478 16.872 32.7478 17.2559V17.5731H34.628C35.3874 17.5731 35.7671 17.907 35.7671 18.5581V21.3631C35.7671 22.0309 35.3874 22.3481 34.628 22.3481H26.4668C25.7074 22.3481 25.3284 22.0309 25.3284 21.3631V18.5581C25.3284 17.907 25.7074 17.5731 26.4668 17.5731H28.4343ZM34.6977 25.1538C35.405 25.1538 35.7678 25.4543 35.7678 26.0554V27.6249C35.7678 28.2926 35.405 28.6099 34.6977 28.6099H26.6049C25.8806 28.6099 25.5348 28.2926 25.5348 27.6249V26.0554C25.5348 25.4543 25.8806 25.1538 26.6049 25.1538H34.6977ZM28.4343 19.4764V18.6247H27.0712C26.795 18.6247 26.6746 18.8087 26.6746 19.1419V19.4758L28.4343 19.4764ZM28.4343 20.4454H26.6746V20.7793C26.6746 21.1298 26.795 21.2971 27.0712 21.2971H28.4343V20.4454ZM34.4216 26.9738V26.7065C34.4216 26.406 34.2835 26.256 34.0243 26.256H27.2783C27.0022 26.256 26.881 26.4066 26.881 26.7065V26.9738C26.881 27.3243 27.0022 27.4916 27.2783 27.4916H34.0243C34.2828 27.4916 34.4216 27.3243 34.4216 26.9738ZM29.7108 19.4764H31.453V18.6247H29.7108V19.4764ZM31.4537 20.4454H29.7115V21.2971H31.4537V20.4454ZM32.7478 19.4764H34.4216V19.1426C34.4216 18.8087 34.2835 18.6254 34.0243 18.6254H32.7478V19.4764ZM34.4216 20.7793V20.4454H32.7478V21.2971H34.0243C34.2828 21.2971 34.4216 21.1298 34.4216 20.7793Z" fill="white"/>
<path d="M46.2775 17.3105V17.4392H49.5078C49.7723 17.4392 49.9051 17.5671 49.9051 17.8077C49.9051 18.1123 49.7723 18.2569 49.5078 18.2569H46.2775V18.818H48.8618C49.4583 18.818 49.7729 19.0906 49.7729 19.6357C49.7729 19.7477 49.6902 19.9083 49.558 20.1329C49.276 20.5181 48.9614 20.8386 48.613 21.1105C48.1493 21.4797 47.6354 21.8003 47.0395 22.0569C46.4103 22.3454 45.6972 22.57 44.9352 22.7619C44.2064 22.9225 43.5271 23.0505 42.9143 23.1311C42.4831 23.1311 42.2675 22.9066 42.2675 22.4414C42.2675 22.2008 42.4831 22.0569 42.9143 22.0082C43.6098 21.9442 44.2233 21.8483 44.7528 21.7196C44.9352 21.6877 45.1013 21.6557 45.2667 21.6077C44.8023 21.2225 44.3223 20.822 43.8085 20.4374C43.759 20.4214 43.7258 20.4054 43.7088 20.3894C43.6424 20.4374 43.5929 20.4694 43.5597 20.5014C43.3278 20.63 43.1292 20.742 42.9305 20.8226C42.8146 20.8706 42.7482 20.8866 42.715 20.8866C42.3672 20.8866 42.2018 20.71 42.2018 20.3255C42.2018 20.0689 42.3672 19.8763 42.715 19.7483C43.0133 19.6684 43.2288 19.5884 43.3943 19.4918C43.6098 19.3791 43.8085 19.2352 43.9908 19.0426C44.1237 18.8986 44.2728 18.818 44.4545 18.818H45.0511V17.3105C45.0511 16.942 45.2335 16.7494 45.6308 16.7494C46.0619 16.7494 46.2775 16.942 46.2775 17.3105ZM56.0513 17.3745C56.6478 17.3745 56.9461 17.5831 56.9461 17.9996C56.9461 18.2242 56.797 18.4808 56.5319 18.7694C56.1008 19.2339 55.4716 19.731 54.6432 20.2762C54.4941 20.3721 54.3449 20.4688 54.2121 20.5327C54.5103 20.6767 54.8086 20.8053 55.1395 20.9173C55.5537 21.0779 56.1333 21.2218 56.8797 21.3824C57.2275 21.4464 57.4098 21.623 57.4098 21.9436C57.4098 22.4087 57.1611 22.6333 56.698 22.6333C56.0181 22.4894 55.4553 22.3128 54.991 22.1202C54.1293 21.8156 53.467 21.511 52.9701 21.1905C52.6392 21.3511 52.2908 21.4951 51.9593 21.6237C51.7769 21.7196 51.6115 21.7523 51.4461 21.7523H51.3464C52.2738 22.2328 53.1687 22.618 54.0466 22.8906C54.7428 23.1471 55.7869 23.4197 57.2112 23.6923C57.4932 23.7563 57.6424 23.9169 57.6586 24.2048C57.6254 24.59 57.4431 24.7979 57.0783 24.8305C56.7807 24.8305 56.4824 24.7985 56.2167 24.7346C54.8588 24.414 53.5992 23.9808 52.4067 23.4357C52.4067 23.4677 52.423 23.4997 52.423 23.5157C52.423 23.8522 52.2406 24.0128 51.9091 24.0128H48.0164C47.668 24.0128 47.5032 23.8522 47.5032 23.5157V23.4837C47.1385 23.6603 46.7907 23.8049 46.4592 23.9169C45.4145 24.3014 44.4376 24.59 43.5265 24.7985C43.2119 24.9105 42.98 24.9592 42.8472 24.9592C42.4662 24.9272 42.2669 24.7186 42.2669 24.334C42.2669 24.0775 42.416 23.9009 42.7143 23.8209C44.3705 23.4357 45.6132 23.0672 46.4585 22.7306C47.4693 22.3454 48.4632 21.8323 49.457 21.2231C49.6231 21.1272 49.7879 21.0632 49.9703 21.0632C50.1031 21.0632 50.2685 21.1272 50.4346 21.2398C50.5675 21.3358 50.716 21.4157 50.8651 21.4804C50.8156 21.4004 50.7987 21.3038 50.7987 21.1918C50.7987 20.9353 50.8983 20.7586 51.1302 20.6307C51.3953 20.5507 51.6278 20.4701 51.842 20.3901C51.478 20.1015 51.1465 19.813 50.8645 19.5084C50.7316 19.3318 50.6665 19.1879 50.6665 19.0592C50.6665 18.7387 50.8319 18.5628 51.1966 18.5628C51.2963 18.5628 51.3953 18.6107 51.5118 18.6907C51.9756 19.1559 52.4894 19.5564 53.0521 19.9096C53.7816 19.5724 54.4771 19.1239 55.1395 18.5628C55.1395 18.4828 55.1063 18.4341 55.073 18.4341H50.998C50.6502 18.4341 50.4848 18.2582 50.4848 17.873C50.4848 17.5524 50.6508 17.3758 50.998 17.3758H56.0506L56.0513 17.3745ZM53.9809 24.446C54.7435 24.446 55.1408 24.7826 55.1408 25.4563V27.5249C55.1408 28.198 54.7435 28.5192 53.9809 28.5192H50.0881C50.4529 28.8078 50.8501 29.0484 51.3145 29.241C51.646 29.3689 51.9769 29.4816 52.3253 29.5775C53.7503 29.0004 54.9102 28.4712 55.7882 27.9581C56.0194 27.8781 56.1685 27.8301 56.2349 27.8301C56.6661 27.8301 56.8817 28.0387 56.8817 28.4553C56.8817 28.6798 56.7989 28.8564 56.6329 29.0164C55.8878 29.3696 55.0424 29.6902 54.0981 30.0107C54.877 30.1547 55.8709 30.2833 57.0803 30.3959C57.5114 30.4759 57.727 30.6845 57.727 31.021C57.727 31.5182 57.4619 31.7747 56.9487 31.7747C55.6064 31.6148 54.397 31.4062 53.3035 31.1336C51.9117 30.7811 50.785 30.3319 49.9566 29.7868C49.3769 29.4502 48.9126 29.033 48.5485 28.5199H45.9473V30.2999C47.074 30.22 48.0516 30.1233 48.8631 30.0274C48.979 29.9954 49.0949 29.9634 49.1946 29.9634C49.5098 29.9954 49.6746 30.1393 49.7078 30.4599C49.6915 30.7484 49.5593 30.941 49.3105 31.021C48.5817 31.165 47.6035 31.2936 46.3947 31.4222C45.4666 31.5182 44.3562 31.6148 43.0478 31.7108C42.7163 31.6788 42.5339 31.4702 42.5176 31.0857C42.5176 30.7324 42.6837 30.5245 43.0478 30.4599C43.6606 30.4279 44.1908 30.4119 44.6545 30.3959V25.457C44.6545 24.7832 45.0355 24.4467 45.8307 24.4467L53.9809 24.446ZM46.2775 21.1265C46.3439 21.1905 46.3771 21.2225 46.4103 21.2551C46.8408 21.1105 47.2218 20.9346 47.5696 20.71C47.8516 20.5341 48.133 20.2928 48.415 20.0049C48.415 19.8763 48.3153 19.8123 48.1499 19.8123H44.6538C45.2504 20.2615 45.7806 20.6933 46.2775 21.1265ZM53.8486 26.0175V25.9535C53.8486 25.6323 53.7158 25.4563 53.4507 25.4563H46.3439C46.0788 25.4563 45.946 25.6323 45.946 25.9535V26.0175H53.8486ZM53.8486 27.0118V26.8998H45.946V27.0118C45.946 27.3643 46.0788 27.5249 46.3439 27.5249H53.4507C53.7158 27.5249 53.8486 27.3643 53.8486 27.0118ZM51.4793 23.0032C51.1315 22.8426 50.7993 22.6666 50.4854 22.474C50.2203 22.3454 50.0543 22.2654 49.9716 22.2654C49.8387 22.2654 49.7065 22.3134 49.5743 22.3934C49.1933 22.618 48.8286 22.8266 48.4808 23.0025L51.4793 23.0032Z" fill="white"/>
<path d="M67.9769 17.4225L70.3293 18.9939C70.4954 19.1699 70.5944 19.3465 70.5944 19.5071C70.5612 19.8596 70.3788 20.0522 70.0148 20.0682C69.8988 20.0682 69.766 20.0362 69.6168 19.9403L67.5627 18.4815C67.463 18.4175 67.3641 18.3695 67.2976 18.3695C67.2149 18.3695 67.1485 18.4175 67.082 18.4974C66.5519 19.0426 65.9885 19.5397 65.3926 20.0049H69.2358C69.5673 20.0049 69.7497 20.1809 69.7497 20.5014C69.7497 20.8866 69.5673 21.0625 69.2358 21.0625H65.3431C64.9947 21.0625 64.8293 20.8859 64.8293 20.5014C64.8293 20.4694 64.8293 20.4374 64.8455 20.4054C64.7628 20.4694 64.697 20.5341 64.6306 20.566C64.432 20.662 64.2659 20.694 64.1168 20.694C63.7025 20.662 63.4876 20.4534 63.4707 20.0689C63.4707 19.8923 63.5534 19.7323 63.7351 19.5717C64.9283 18.866 65.8062 18.1929 66.3858 17.5518C66.6177 17.2632 66.899 17.1186 67.2305 17.1186C67.4461 17.1186 67.6949 17.2312 67.9756 17.4232L67.9769 17.4225ZM68.9714 21.7523C69.7334 21.7523 70.1307 22.0888 70.1307 22.7619V26.0168C70.1307 26.7225 69.7334 27.0751 68.9714 27.0751H65.4753V30.0094C65.6245 29.9774 65.7736 29.9454 65.9058 29.8974C66.7017 29.7048 67.3803 29.4802 67.9437 29.2236C67.762 28.9031 67.5796 28.6305 67.4135 28.3899C67.364 28.262 67.3471 28.1654 67.3471 28.0854C67.3471 27.7968 67.5458 27.6522 67.943 27.6522C68.1091 27.6522 68.2915 27.7322 68.4569 27.8928C68.987 28.6305 69.4508 29.4642 69.8155 30.3946C69.8487 30.5545 69.8819 30.6991 69.8819 30.8437C69.8819 31.1643 69.6331 31.3409 69.1694 31.3409C68.9714 31.3409 68.8053 31.1969 68.7057 30.9077C68.606 30.6511 68.5233 30.4266 68.4406 30.234C67.9105 30.4905 67.2143 30.7311 66.3695 30.9877C65.7072 31.1796 64.9113 31.3562 63.9839 31.5328C63.653 31.5008 63.4707 31.2922 63.4707 30.9077C63.4707 30.5232 63.6368 30.3306 63.9839 30.2826C64.0666 30.2666 64.15 30.2506 64.249 30.2506V22.7626C64.249 22.0895 64.6137 21.753 65.3425 21.753L68.9714 21.7523ZM68.905 23.8209V23.2598C68.905 22.9712 68.7558 22.8266 68.4576 22.8266H65.8726C65.6082 22.8266 65.4753 22.9705 65.4753 23.2598V23.8209H68.905ZM68.905 25.5203V24.8312H65.4753V25.5203C65.4753 25.8575 65.6082 26.0175 65.8726 26.0175H68.4576C68.7558 26.0175 68.905 25.8575 68.905 25.5203ZM72.9143 17.5671C72.8811 17.9843 72.8478 18.3688 72.8146 18.6894H77.2544C78.1161 18.6894 78.5459 19.0906 78.5459 19.8756C78.5459 20.2288 78.4801 20.6773 78.3805 21.1905C78.1818 22.0888 77.8829 23.0505 77.5182 24.0768C77.3365 24.2854 77.1378 24.3814 76.9385 24.3814C76.4579 24.3814 76.2267 24.2048 76.2267 23.8202C76.2267 23.7563 76.243 23.6756 76.2762 23.5796C76.607 22.65 76.8721 21.7676 77.0714 20.9499C77.1378 20.6454 77.1873 20.3888 77.1873 20.1962C77.1873 19.9876 77.0545 19.8756 76.8063 19.8756H72.6316C72.5652 20.1642 72.4825 20.4048 72.416 20.5974C72.2174 21.1265 71.8696 21.7196 71.372 22.3774C71.206 22.4254 71.0243 22.4414 70.8419 22.4414C70.4107 22.4414 70.1952 22.2168 70.1952 21.7523C70.1952 21.6883 70.2284 21.5917 70.328 21.4477C70.7924 20.8706 71.0907 20.3415 71.2392 19.8923C71.4547 19.3958 71.6039 18.5774 71.6866 17.4392C71.7198 17.1506 71.8852 16.99 72.1998 16.99C72.6642 16.99 72.9123 17.1826 72.9123 17.5671H72.9143ZM74.9189 20.9506V23.7563C74.9189 24.1894 74.9854 24.7019 75.1508 25.2957C75.2999 25.9368 75.5481 26.5626 75.9128 27.1717C76.228 27.7488 76.6578 28.3426 77.1886 28.9198C77.5364 29.3369 78.0333 29.8181 78.6794 30.3466C78.8123 30.4752 78.8781 30.6192 78.8781 30.7798C78.8448 31.2449 78.5961 31.5015 78.1662 31.5335C77.9838 31.5015 77.8178 31.4375 77.6524 31.3409C76.99 30.7958 76.426 30.2346 75.9629 29.6575C75.5318 29.1124 75.1846 28.5832 74.9359 28.0861C74.6538 27.5409 74.4383 26.9958 74.2735 26.4506C74.1406 26.9958 73.9583 27.5249 73.7264 28.0381C73.4946 28.5512 73.1963 29.0804 72.8322 29.6255C72.4343 30.2186 71.9706 30.7964 71.4404 31.3416C71.2581 31.4695 71.1096 31.5342 70.9767 31.5342C70.4791 31.5022 70.2141 31.2296 70.1978 30.7165C70.1978 30.5885 70.2642 30.4439 70.3964 30.2833C70.993 29.6742 71.4404 29.145 71.7719 28.6958C72.2356 28.0867 72.6166 27.4769 72.8986 26.8678C73.1637 26.2907 73.3454 25.7455 73.4613 25.2164C73.561 24.6713 73.6274 24.1901 73.6274 23.7576V20.9519C73.6274 20.5667 73.843 20.3748 74.2742 20.3748C74.7053 20.3748 74.9202 20.5674 74.9202 20.9519L74.9189 20.9506Z" fill="white"/>
<path d="M87.7205 17.5211C87.7205 17.5991 87.6879 17.6937 87.656 17.819C87.5746 18.0389 87.4932 18.2269 87.4287 18.3842H91.4178C91.466 18.3215 91.5155 18.2742 91.5481 18.2269C91.7585 17.929 91.9538 17.6144 92.1479 17.2692C92.2612 17.1119 92.4234 17.034 92.6501 17.034C92.8129 17.034 92.9588 17.0966 93.1047 17.2066C93.218 17.3319 93.2825 17.4891 93.2825 17.6464C93.2825 17.7717 93.2343 17.8977 93.1529 18.0076C93.0552 18.1642 92.9581 18.2902 92.8611 18.3842H98.1645C98.5377 18.3842 98.7317 18.5721 98.7317 18.9333C98.7317 19.3411 98.537 19.5457 98.1645 19.5457H92.6501V20.4094H97.8564C98.2296 20.4094 98.4237 20.5974 98.4237 20.9586C98.4237 21.3664 98.2289 21.571 97.8564 21.571H92.6501V22.4814H97.8564C98.2296 22.4814 98.4237 22.67 98.4237 23.0312C98.4237 23.455 98.2289 23.659 97.8564 23.659H92.6501V24.6953H98.3592C98.7812 24.6953 98.9916 24.8832 98.9916 25.2444C98.9916 25.6522 98.7812 25.8568 98.3592 25.8568H92.456C92.5862 25.9821 92.6507 26.1547 92.6507 26.3433V26.8458H98.6679C99.0893 26.8458 99.3003 27.0498 99.3003 27.4583C99.3003 27.8668 99.0893 28.0707 98.6679 28.0707H93.332C93.9806 28.4319 94.6619 28.7298 95.3587 28.9811C96.7056 29.5149 97.889 29.9074 98.9271 30.1587C99.17 30.2526 99.3003 30.4725 99.3003 30.8337C99.3003 31.2416 99.0893 31.4462 98.6679 31.4462C98.5865 31.4462 98.3918 31.4149 98.0674 31.3522C97.0788 31.007 96.1377 30.6298 95.2624 30.2533C94.3701 29.8608 93.4941 29.4056 92.6507 28.8878V31.0703C92.6507 31.4782 92.4403 31.6821 92.0183 31.6821C91.5963 31.6821 91.3859 31.4782 91.3859 31.0703V29.0291C90.7372 29.3903 90.0723 29.7041 89.3911 29.9554C88.4506 30.3479 87.1044 30.7718 85.3694 31.2423C85.1258 31.2889 84.9799 31.3209 84.9311 31.3209C84.5097 31.3209 84.2987 31.0857 84.2987 30.6458C84.2987 30.3319 84.4446 30.128 84.737 30.0334C86.5534 29.6255 87.9966 29.217 89.0348 28.8245C89.6835 28.5892 90.267 28.338 90.7705 28.0707H84.8666C84.4452 28.0707 84.2342 27.8668 84.2342 27.4583C84.2342 27.0498 84.4452 26.8458 84.8666 26.8458H91.3866V26.3433C91.3866 26.1234 91.4517 25.9508 91.582 25.8568H86.8296C85.9868 25.8568 85.5648 25.449 85.5648 24.6326V21.0219C85.4352 21.1472 85.3375 21.2411 85.2404 21.3198C85.0783 21.4451 84.8998 21.5084 84.7383 21.5084C84.3169 21.5084 84.1059 21.3358 84.1059 20.9586C84.1059 20.8799 84.1385 20.7546 84.2355 20.582C84.722 20.1742 85.144 19.703 85.5172 19.2005C85.906 18.6667 86.2473 18.0543 86.5065 17.3325C86.5547 17.1446 86.7494 17.0346 87.0738 17.0346C87.4952 17.0346 87.7225 17.2072 87.7225 17.5211H87.7205ZM91.3859 19.5464H86.7963L86.7807 19.5617C86.8133 19.6557 86.8289 19.7503 86.8289 19.8443V20.4094H91.3866L91.3859 19.5464ZM91.3859 21.5717H86.8282V22.482H91.3859V21.5717ZM91.3859 23.6596H86.8282V24.0835C86.8282 24.4913 87.0067 24.6959 87.3962 24.6959H91.3853L91.3859 23.6596Z" fill="white"/>
<path d="M117.526 17.7084C118.388 17.7084 118.819 18.0936 118.819 18.8307V30.4239C118.819 31.2096 118.387 31.6101 117.526 31.6101H106.079C105.217 31.6101 104.787 31.2096 104.787 30.4239V18.8307C104.787 18.0929 105.217 17.7084 106.079 17.7084H117.526ZM111.96 30.232C111.662 30.136 111.512 29.9594 111.512 29.6708C111.512 29.2863 111.695 29.0777 112.026 29.0457C112.076 29.0457 112.142 29.0617 112.242 29.0937C112.788 29.3183 113.153 29.4142 113.319 29.4142C113.666 29.4142 113.849 29.2703 113.849 28.9811V28.2273H109.89C110.022 28.34 110.155 28.4519 110.287 28.5486C110.42 28.6605 110.585 28.8211 110.801 29.045C110.834 29.1737 110.867 29.2856 110.867 29.4142C110.867 29.7668 110.668 29.9274 110.287 29.9274C110.089 29.9274 109.906 29.8954 109.757 29.7994C109.591 29.6228 109.459 29.4789 109.359 29.3663C109.26 29.2863 109.161 29.2057 109.045 29.1097C108.912 28.9657 108.862 28.8211 108.862 28.6765C108.862 28.4679 108.912 28.3233 109.029 28.2273H106.858C106.494 28.2273 106.328 28.0514 106.328 27.6662C106.328 27.3456 106.494 27.169 106.858 27.169H113.849V26.1267C111.447 26.2547 109.161 26.3513 106.974 26.4153C106.626 26.4153 106.461 26.2387 106.461 25.8542C106.461 25.5336 106.627 25.357 106.974 25.341C108.366 25.341 109.675 25.325 110.934 25.293V24.7159H107.886C107.272 24.7159 106.974 24.4273 106.974 23.8502V21.653C106.974 21.1079 107.272 20.8353 107.886 20.8353H110.934V20.3388H107.173C106.825 20.3388 106.659 20.1782 106.659 19.8416C106.659 19.5051 106.825 19.3285 107.173 19.3285H110.934V18.7674H106.726C106.294 18.7674 106.08 19.0079 106.08 19.4571V29.7994C106.08 30.3126 106.294 30.5532 106.726 30.5532H113.038C112.706 30.4892 112.359 30.3932 111.961 30.2326L111.96 30.232ZM110.933 22.2781V21.7816H108.282C108.15 21.7816 108.084 21.8616 108.084 22.0222V22.2788L110.933 22.2781ZM110.933 23.1605H108.084V23.465C108.084 23.6896 108.15 23.7856 108.281 23.7856H110.932L110.933 23.1605ZM117.526 29.7988V19.4564C117.526 19.0073 117.311 18.7667 116.88 18.7667H112.159V19.3278H116.367C116.698 19.3278 116.88 19.5038 116.88 19.841C116.88 20.1782 116.698 20.3381 116.367 20.3381H112.159V20.8346H115.455C116.101 20.8346 116.433 21.1072 116.433 21.6523V23.8496C116.433 24.2347 116.3 24.4747 116.035 24.6033C116.184 24.7639 116.317 24.9238 116.449 25.0685C116.615 25.2611 116.813 25.5336 117.078 25.9182C117.112 26.0301 117.145 26.1587 117.145 26.2874C117.145 26.6239 116.946 26.7838 116.565 26.7838C116.35 26.7838 116.167 26.7519 116.035 26.6719C115.902 26.4153 115.803 26.1914 115.703 26.0148C115.671 26.0308 115.655 26.0308 115.655 26.0308C115.456 26.0468 115.257 26.0628 115.074 26.0628V27.169H116.682C117.03 27.169 117.211 27.3456 117.211 27.6662C117.211 28.0514 117.029 28.2273 116.682 28.2273H115.074V29.4782C115.074 30.0713 114.776 30.4239 114.196 30.5525H116.88C117.311 30.5525 117.526 30.3119 117.526 29.7988ZM112.159 22.2781H115.323V22.0215C115.323 21.8609 115.24 21.781 115.074 21.781H112.159V22.2781ZM115.323 23.465V23.1605H112.159V23.7856H115.074C115.24 23.7856 115.323 23.6896 115.323 23.465ZM115.074 24.9085C115.074 24.8285 115.074 24.7646 115.108 24.7159H112.159V25.2611C113.219 25.2291 114.196 25.1971 115.124 25.1324C115.091 25.0525 115.074 24.9732 115.074 24.9085Z" fill="white"/>
<path d="M15.8372 1.7987C16.3218 1.7987 16.7158 1.39484 16.7158 0.899681C16.7158 0.404523 16.3224 0 15.8372 0C15.352 0 14.9586 0.402524 14.9586 0.899681C14.9586 1.39684 15.3507 1.7987 15.8372 1.7987Z" fill="white"/>
<path d="M18.5908 1.7987C19.0754 1.7987 19.4694 1.39484 19.4694 0.899681C19.4694 0.404523 19.076 0 18.5908 0C18.1056 0 17.711 0.402524 17.711 0.899681C17.711 1.39684 18.1063 1.7987 18.5908 1.7987Z" fill="white"/>
<path d="M21.3132 1.7987C21.7978 1.7987 22.1918 1.39484 22.1918 0.899681C22.1918 0.404523 21.7984 0 21.3132 0C20.828 0 20.4333 0.402524 20.4333 0.899681C20.4333 1.39684 20.8286 1.7987 21.3132 1.7987Z" fill="white"/>
<path d="M3.03888 5.86792H1.74739V2.79101H0V10.8095H1.74739V7.65462H3.03888V10.8095H4.79734V2.79101H3.03888V5.86792Z" fill="white"/>
<path d="M10.6107 9.03213H9.13879V2.79101H7.36079V10.8095H12.3906V2.79101H10.6107V9.03213Z" fill="white"/>
<path d="M14.9632 10.8095H16.7542V4.61037H17.7077V10.8095H19.4857V4.61037H20.417V10.8095H22.2061V2.79101H14.9632V10.8095Z" fill="white"/>
<path d="M26.0259 2.78301L24.7696 10.8095H26.5586L27.49 4.61037H28.0514L28.9827 10.8095H30.7848L29.4979 2.79101L26.0259 2.78301Z" fill="white"/>
<path d="M38.8639 2.79101H37.0957L36.1103 4.91493L35.1373 2.79101H33.3352L35.2318 6.80626L33.3352 10.8095H35.1373L36.1103 8.69892L37.0957 10.8095H38.8639L36.9694 6.80626L38.8639 2.79101Z" fill="white"/>
<path d="M119.674 6.98419H43.5239C43.3435 6.98419 43.1976 6.83491 43.1976 6.65031C43.1976 6.46571 43.3435 6.31643 43.5239 6.31643H119.674C119.854 6.31643 120 6.46571 120 6.65031C120 6.83491 119.854 6.98419 119.674 6.98419Z" fill="white"/>
</g>
<defs>
<clipPath id="clip0_1_266">
<rect width="120" height="32" fill="white"/>
</clipPath>
</defs>
</svg>
