<svg width="241" height="62" viewBox="0 0 241 62" fill="none" xmlns="http://www.w3.org/2000/svg">
<g clip-path="url(#clip0_1_227)">
<path d="M31.8417 59.1361C31.8417 60.0044 31.3421 60.4695 30.4121 60.4695H3.49364C2.52965 60.4695 2.06401 60.0044 2.06401 59.1361C2.06401 58.2678 2.52965 57.8028 3.49364 57.8028H30.4108C31.3421 57.8028 31.8404 58.2678 31.8404 59.1361H31.8417ZM30.6449 36.7251C30.6449 37.6244 30.1453 38.0585 29.214 38.0585H4.52565C3.56035 38.0585 3.09601 37.6244 3.09601 36.7251C3.09601 35.8259 3.56035 35.3918 4.52565 35.3918H29.2127C30.1453 35.3918 30.6436 35.8568 30.6436 36.7251H30.6449ZM28.8464 47.6369C28.8464 48.5348 28.4148 48.9703 27.5489 48.9703H5.68976C4.82518 48.9703 4.39223 48.5361 4.39223 47.6369C4.39223 46.8304 4.82518 46.4285 5.68976 46.4285H27.5502C28.4161 46.4285 28.8477 46.8317 28.8477 47.6369H28.8464Z" fill="#727171"/>
<path d="M51.4511 50.1388C51.4511 50.4003 51.3452 50.7906 51.1712 51.3124C50.1915 54.05 49.1779 56.2658 48.1982 57.9599C47.2878 59.5896 46.4847 60.7632 45.8202 61.5117C45.4697 61.8377 45.1545 62 44.8759 62C43.7562 62 43.2317 61.5117 43.2317 60.5983C43.2317 60.4682 43.3364 60.1423 43.5823 59.685C44.5606 58.4791 45.3664 57.3068 45.9602 56.1666C46.9033 54.5383 47.8829 52.3546 48.8639 49.6505C49.0732 49.1287 49.4591 48.8685 49.9483 48.8685C50.9279 48.9007 51.4184 49.3246 51.4524 50.1388H51.4511ZM45.8542 41.5047C47.3231 42.4168 48.758 43.4925 50.0856 44.6648C50.1549 44.9251 50.2256 45.1531 50.2256 45.3167C50.2256 46.0987 49.7717 46.4568 48.8613 46.4568C48.6154 46.4568 48.3708 46.3924 48.1615 46.1966C46.762 45.2188 45.3284 44.2423 43.7889 43.2967C43.5797 42.9385 43.509 42.677 43.509 42.5147C43.509 41.667 43.9995 41.2432 45.0132 41.2432C45.2931 41.2432 45.573 41.3411 45.8529 41.5047H45.8542ZM47.3584 33.7492C48.5827 34.727 49.773 35.8027 50.8926 37.0408C50.962 37.3023 51.0326 37.4968 51.0326 37.6926C51.0326 38.4746 50.5774 38.8328 49.667 38.8328C49.4224 38.8328 49.1779 38.7684 48.9673 38.5725C47.8136 37.5303 46.5893 36.519 45.2944 35.509C45.0838 35.1831 45.0145 34.9228 45.0145 34.7592C45.0145 33.9115 45.505 33.489 46.5187 33.489C46.7973 33.489 47.0785 33.5869 47.3571 33.7492H47.3584ZM58.4123 55.8729C59.0414 56.6227 59.6366 57.4704 60.1964 58.4147C60.2657 58.6762 60.3363 58.903 60.3363 59.0666H66.3191C66.493 58.9043 66.6696 58.7406 66.8436 58.5448C67.4387 57.8285 67.9972 57.0453 68.523 56.2646C68.7676 55.9386 69.1182 55.7428 69.6074 55.7428C69.9579 55.7428 70.2718 55.8729 70.5871 56.1331C70.8316 56.3934 70.9703 56.6871 70.9703 57.013C70.9703 57.3068 70.8656 57.567 70.7257 57.795C70.3752 58.2511 69.9919 58.6749 69.6414 59.0653H74.5385C75.3429 59.0653 75.7628 59.4234 75.7628 60.2054C75.7628 61.0531 75.3429 61.477 74.5385 61.477H52.2556C51.4171 61.477 51.0313 61.0531 51.0313 60.2054C51.0313 59.4234 51.4158 59.0653 52.2556 59.0653H57.6079C57.188 58.5435 56.7681 58.0553 56.347 57.5335C56.173 57.2398 56.1024 57.0118 56.1024 56.8816C56.1024 56.0339 56.5575 55.6114 57.4666 55.6114C57.7465 55.6114 58.0617 55.7093 58.411 55.8716L58.4123 55.8729ZM74.9584 45.8385C74.9584 46.6205 74.5385 46.9786 73.6975 46.9786H52.6741C51.8344 46.9786 51.4498 46.6205 51.4498 45.8385C51.4498 45.0565 51.8344 44.6648 52.6741 44.6648H73.6975C74.5372 44.6648 74.9584 45.0552 74.9584 45.8385ZM58.9721 33.8471V33.2274C58.9721 32.4777 59.3566 32.0873 60.1964 32.0873C61.1067 32.0873 61.5619 32.4777 61.5619 33.2274V33.8471H65.0948V33.2274C65.0948 32.4777 65.5147 32.0873 66.3544 32.0873C67.2648 32.0873 67.7199 32.4777 67.7199 33.2274V33.8471H71.5314C73.0709 33.8471 73.8413 34.4977 73.8413 35.7692V41.2432C73.8413 42.5469 73.0709 43.1653 71.5314 43.1653H54.9866C53.4471 43.1653 52.678 42.5469 52.678 41.2432V35.7692C52.678 34.4977 53.4471 33.8471 54.9866 33.8471H58.9747H58.9721ZM71.6701 48.6405C73.1036 48.6405 73.8387 49.2267 73.8387 50.4003V53.4638C73.8387 54.7663 73.1036 55.3859 71.6701 55.3859H55.2626C53.7938 55.3859 53.094 54.7663 53.094 53.4638V50.4003C53.094 49.2267 53.7951 48.6405 55.2626 48.6405H71.6701ZM58.9721 37.5612V35.8993H56.2083C55.6485 35.8993 55.4039 36.2575 55.4039 36.9094V37.5612H58.9721ZM58.9721 39.4511H55.4039V40.103C55.4039 40.7871 55.6485 41.113 56.2083 41.113H58.9721V39.4511ZM71.1102 52.191V51.6692C71.1102 51.0831 70.8303 50.7893 70.3045 50.7893H56.6282C56.0683 50.7893 55.8224 51.0831 55.8224 51.6692V52.191C55.8224 52.8751 56.0683 53.201 56.6282 53.201H70.3045C70.829 53.201 71.1102 52.8751 71.1102 52.191ZM61.5606 37.5612H65.0935V35.8993H61.5606V37.5612ZM65.0935 39.4511H61.5606V41.113H65.0935V39.4511ZM67.7173 37.5612H71.1102V36.9094C71.1102 36.2588 70.8303 35.8993 70.3045 35.8993H67.7173V37.5612ZM71.1102 40.103V39.4511H67.7173V41.113H70.3045C70.829 41.113 71.1102 40.7871 71.1102 40.103Z" fill="#727171"/>
<path d="M95.3369 33.4632V33.7118H101.825C102.356 33.7118 102.622 33.9592 102.622 34.4243C102.622 35.013 102.356 35.2926 101.825 35.2926H95.3369V36.3773H100.527C101.725 36.3773 102.357 36.9042 102.357 37.958C102.357 38.1745 102.191 38.4849 101.925 38.9191C101.359 39.6637 100.727 40.2834 100.027 40.809C99.096 41.5227 98.064 42.1424 96.8672 42.6384C95.6037 43.1962 94.1714 43.6303 92.6411 44.0014C91.1775 44.3118 89.8132 44.5592 88.5824 44.7151C87.7165 44.7151 87.2836 44.2809 87.2836 43.3817C87.2836 42.9166 87.7165 42.6384 88.5824 42.5443C89.9793 42.4206 91.2115 42.2351 92.2748 41.9865C92.6411 41.9247 92.9733 41.8628 93.3069 41.7701C92.3743 41.0254 91.4103 40.2512 90.3783 39.5078C90.2789 39.4769 90.2122 39.446 90.1781 39.4151C90.0447 39.5078 89.9453 39.5697 89.8786 39.6315C89.413 39.8801 89.014 40.0966 88.6151 40.2525C88.3823 40.3452 88.2489 40.3761 88.1822 40.3761C87.4837 40.3761 87.1515 40.0347 87.1515 39.2914C87.1515 38.7954 87.4837 38.4231 88.1822 38.1757C88.7812 38.0211 89.2142 37.8666 89.5464 37.6798C89.9793 37.462 90.3783 37.1838 90.7445 36.8115C91.0113 36.5332 91.3109 36.3773 91.6758 36.3773H92.8739V33.4632C92.8739 32.7508 93.2402 32.3785 94.038 32.3785C94.9039 32.3785 95.3369 32.7508 95.3369 33.4632ZM114.966 33.5869C116.164 33.5869 116.763 33.9901 116.763 34.7953C116.763 35.2294 116.464 35.7254 115.931 36.2833C115.065 37.1825 113.802 38.1423 112.138 39.1961C111.838 39.3816 111.539 39.5684 111.272 39.6921C111.871 39.9703 112.47 40.219 113.135 40.4354C113.967 40.7459 115.131 41.0241 116.63 41.3346C117.328 41.4583 117.694 41.7997 117.694 42.4194C117.694 43.3186 117.195 43.7527 116.265 43.7527C114.899 43.4745 113.769 43.1331 112.836 42.7608C111.106 42.172 109.776 41.5833 108.778 40.9636C108.113 41.2741 107.414 41.5523 106.748 41.801C106.382 41.9865 106.049 42.0496 105.717 42.0496H105.517C107.38 42.9785 109.177 43.7231 110.94 44.25C112.338 44.746 114.435 45.2729 117.295 45.7998C117.862 45.9235 118.161 46.234 118.194 46.7905C118.127 47.5351 117.761 47.9371 117.029 48.0002C116.431 48.0002 115.832 47.9384 115.298 47.8147C112.571 47.195 110.041 46.3576 107.646 45.3038C107.646 45.3657 107.679 45.4275 107.679 45.4584C107.679 46.109 107.313 46.4195 106.647 46.4195H98.8292C98.1294 46.4195 97.7985 46.109 97.7985 45.4584V45.3966C97.066 45.738 96.3676 46.0175 95.7018 46.234C93.6038 46.9773 91.6418 47.5351 89.8119 47.9384C89.1802 48.1548 88.7145 48.2488 88.4477 48.2488C87.6825 48.187 87.2822 47.7838 87.2822 47.0404C87.2822 46.5444 87.5818 46.2031 88.1808 46.0485C91.5071 45.3038 94.0027 44.5914 95.7005 43.9408C97.7305 43.1962 99.7265 42.2042 101.722 41.0267C102.056 40.8412 102.387 40.7175 102.753 40.7175C103.02 40.7175 103.352 40.8412 103.686 41.0589C103.953 41.2444 104.251 41.399 104.55 41.524C104.451 41.3694 104.417 41.1826 104.417 40.9662C104.417 40.4702 104.617 40.1288 105.083 39.8814C105.615 39.7268 106.082 39.571 106.512 39.4164C105.781 38.8585 105.115 38.3007 104.549 37.712C104.282 37.3706 104.151 37.0923 104.151 36.8437C104.151 36.224 104.484 35.8839 105.216 35.8839C105.416 35.8839 105.615 35.9766 105.849 36.1312C106.78 37.0292 107.812 37.8047 108.943 38.4875C110.408 37.8356 111.804 36.9686 113.135 35.8839C113.135 35.7293 113.068 35.6352 113.001 35.6352H104.817C104.119 35.6352 103.786 35.2951 103.786 34.5505C103.786 33.9308 104.12 33.5895 104.817 33.5895H114.965L114.966 33.5869ZM110.808 47.2569C112.339 47.2569 113.137 47.9075 113.137 49.2099V53.2087C113.137 54.5099 112.339 55.1309 110.808 55.1309H102.99C103.722 55.6887 104.52 56.1538 105.453 56.5261C106.119 56.7734 106.783 56.9912 107.483 57.1767C110.345 56.061 112.674 55.0381 114.437 54.0461C114.902 53.8915 115.201 53.7988 115.335 53.7988C116.201 53.7988 116.634 54.202 116.634 55.0072C116.634 55.4413 116.467 55.7827 116.134 56.0919C114.638 56.7747 112.94 57.3944 111.043 58.014C112.608 58.2923 114.604 58.541 117.033 58.7587C117.898 58.9133 118.331 59.3165 118.331 59.9671C118.331 60.9282 117.799 61.4241 116.768 61.4241C114.073 61.115 111.644 60.7117 109.447 60.1848C106.652 59.5033 104.389 58.635 102.726 57.5812C101.562 56.9306 100.629 56.1241 99.8978 55.1322H94.6737V58.5732C96.9365 58.4186 98.8998 58.2318 100.53 58.0463C100.762 57.9844 100.995 57.9226 101.195 57.9226C101.828 57.9844 102.159 58.2627 102.226 58.8824C102.193 59.4402 101.928 59.8125 101.428 59.9671C99.9645 60.2454 97.9999 60.494 95.5723 60.7426C93.7084 60.9282 91.4783 61.1149 88.8518 61.3005C88.1861 61.2386 87.8198 60.8354 87.7871 60.0921C87.7871 59.4093 88.1207 59.0073 88.8518 58.8824C90.0827 58.8205 91.1474 58.7896 92.0787 58.7587V49.2112C92.0787 47.9087 92.8438 47.2582 94.4409 47.2582H110.81L110.808 47.2569ZM95.3369 40.8399C95.4703 40.9636 95.537 41.0254 95.6037 41.0886C96.4683 40.809 97.2334 40.4689 97.9319 40.0347C98.4983 39.6946 99.0633 39.2283 99.6297 38.6717C99.6297 38.4231 99.4296 38.2994 99.0973 38.2994H92.076C93.2742 39.1677 94.3389 40.0038 95.3369 40.8412V40.8399ZM110.542 50.2946V50.171C110.542 49.55 110.275 49.2099 109.743 49.2099H95.4703C94.9379 49.2099 94.6711 49.55 94.6711 50.171V50.2946H110.542ZM110.542 52.2168V52.0003H94.6711V52.2168C94.6711 52.8983 94.9379 53.2087 95.4703 53.2087H109.743C110.275 53.2087 110.542 52.8983 110.542 52.2168ZM105.784 44.4677C105.084 44.1573 104.418 43.8171 103.788 43.4448C103.255 43.1962 102.922 43.0416 102.756 43.0416C102.489 43.0416 102.223 43.1344 101.958 43.2889C101.193 43.7231 100.46 44.1263 99.7618 44.4664H105.784V44.4677Z" fill="#727171"/>
<path d="M137.595 33.6796L142.32 36.7174C142.653 37.0575 142.852 37.3989 142.852 37.7094C142.786 38.3909 142.419 38.7632 141.688 38.7941C141.455 38.7941 141.189 38.7323 140.889 38.5468L136.764 35.7267C136.563 35.603 136.365 35.5103 136.231 35.5103C136.065 35.5103 135.932 35.603 135.798 35.7576C134.734 36.8115 133.602 37.7725 132.405 38.6717H140.124C140.79 38.6717 141.156 39.0118 141.156 39.6315C141.156 40.3761 140.79 40.7162 140.124 40.7162H132.306C131.606 40.7162 131.274 40.3749 131.274 39.6315C131.274 39.5697 131.274 39.5078 131.307 39.446C131.141 39.5697 131.008 39.6946 130.875 39.7565C130.476 39.942 130.143 40.0038 129.843 40.0038C129.011 39.942 128.579 39.5388 128.545 38.7954C128.545 38.454 128.712 38.1448 129.076 37.8344C131.473 36.4701 133.236 35.1689 134.4 33.9296C134.866 33.3717 135.431 33.0922 136.096 33.0922C136.529 33.0922 137.029 33.3099 137.593 33.6809L137.595 33.6796ZM139.593 42.0496C141.123 42.0496 141.921 42.7002 141.921 44.0014V50.2934C141.921 51.6577 141.123 52.3391 139.593 52.3391H132.571V58.0115C132.871 57.9496 133.171 57.8878 133.436 57.795C135.034 57.4227 136.397 56.9886 137.529 56.4926C137.164 55.8729 136.798 55.346 136.464 54.8809C136.365 54.6336 136.331 54.4468 136.331 54.2922C136.331 53.7344 136.73 53.4548 137.527 53.4548C137.861 53.4548 138.227 53.6094 138.559 53.9199C139.624 55.346 140.555 56.9577 141.288 58.7561C141.355 59.0653 141.421 59.3448 141.421 59.6244C141.421 60.2441 140.922 60.5855 139.99 60.5855C139.593 60.5855 139.259 60.3072 139.059 59.7481C138.859 59.2521 138.693 58.8179 138.527 58.4456C137.462 58.9416 136.064 59.4067 134.367 59.9027C133.037 60.2737 131.439 60.6151 129.576 60.9565C128.912 60.8947 128.545 60.4914 128.545 59.7481C128.545 59.0047 128.879 58.6324 129.576 58.5397C129.742 58.5087 129.91 58.4778 130.109 58.4778V44.0027C130.109 42.7015 130.841 42.0509 132.305 42.0509H139.591L139.593 42.0496ZM139.459 46.0485V44.9637C139.459 44.4059 139.16 44.1263 138.561 44.1263H133.369C132.838 44.1263 132.571 44.4046 132.571 44.9637V46.0485H139.459ZM139.459 49.3336V48.0015H132.571V49.3336C132.571 49.9855 132.838 50.2946 133.369 50.2946H138.561C139.16 50.2946 139.459 49.9855 139.459 49.3336ZM147.511 33.9592C147.445 34.7657 147.378 35.509 147.311 36.1287H156.228C157.958 36.1287 158.822 36.9042 158.822 38.4218C158.822 39.1046 158.689 39.9716 158.489 40.9636C158.09 42.7002 157.49 44.5592 156.758 46.5432C156.393 46.9464 155.994 47.1319 155.593 47.1319C154.628 47.1319 154.164 46.7905 154.164 46.0472C154.164 45.9235 154.196 45.7676 154.263 45.5821C154.928 43.7849 155.46 42.0792 155.86 40.4985C155.994 39.9098 156.093 39.4138 156.093 39.0415C156.093 38.6382 155.826 38.4218 155.328 38.4218H146.944C146.81 38.9796 146.644 39.4447 146.511 39.817C146.112 40.8399 145.413 41.9865 144.414 43.258C144.08 43.3508 143.716 43.3817 143.349 43.3817C142.483 43.3817 142.05 42.9476 142.05 42.0496C142.05 41.9259 142.117 41.7391 142.317 41.4609C143.25 40.3452 143.849 39.3223 144.147 38.454C144.58 37.4942 144.88 35.9122 145.046 33.7118C145.112 33.154 145.445 32.8435 146.076 32.8435C147.009 32.8435 147.507 33.2158 147.507 33.9592H147.511ZM151.537 40.4998V45.9235C151.537 46.7609 151.671 47.7516 152.003 48.8994C152.303 50.1388 152.801 51.3485 153.533 52.526C154.166 53.6416 155.03 54.7895 156.096 55.9051C156.794 56.7116 157.792 57.6417 159.09 58.6633C159.357 58.912 159.489 59.1902 159.489 59.5007C159.422 60.3999 158.922 60.8959 158.059 60.9578C157.693 60.8959 157.359 60.7723 157.027 60.5855C155.697 59.5316 154.564 58.4469 153.634 57.3313C152.768 56.2774 152.071 55.2545 151.571 54.2935C151.005 53.2397 150.572 52.1858 150.241 51.132C149.974 52.1858 149.608 53.2087 149.142 54.2007C148.677 55.1927 148.078 56.2156 147.347 57.2694C146.547 58.416 145.616 59.5329 144.551 60.5868C144.185 60.8341 143.887 60.9591 143.62 60.9591C142.621 60.8972 142.088 60.3703 142.056 59.3783C142.056 59.131 142.189 58.8514 142.455 58.541C143.653 57.3635 144.551 56.3406 145.217 55.4723C146.148 54.2948 146.914 53.116 147.48 51.9385C148.012 50.8228 148.377 49.769 148.61 48.7461C148.81 47.6923 148.944 46.7622 148.944 45.9261V40.5024C148.944 39.7578 149.377 39.3867 150.242 39.3867C151.108 39.3867 151.54 39.7591 151.54 40.5024L151.537 40.4998Z" fill="#727171"/>
<path d="M176.97 33.8703C176.97 34.021 176.905 34.204 176.84 34.4462C176.677 34.8713 176.513 35.2346 176.384 35.5386H184.395C184.492 35.4175 184.592 35.3261 184.657 35.2346C185.079 34.6587 185.472 34.0507 185.862 33.3833C186.089 33.0793 186.415 32.9286 186.87 32.9286C187.197 32.9286 187.49 33.0497 187.783 33.2622C188.011 33.5044 188.14 33.8085 188.14 34.1125C188.14 34.3547 188.043 34.5982 187.88 34.8107C187.684 35.1135 187.489 35.357 187.294 35.5386H197.945C198.694 35.5386 199.084 35.9019 199.084 36.6002C199.084 37.3886 198.693 37.7841 197.945 37.7841H186.87V39.4537H197.326C198.076 39.4537 198.465 39.817 198.465 40.5153C198.465 41.3037 198.074 41.6992 197.326 41.6992H186.87V43.459H197.326C198.076 43.459 198.465 43.8236 198.465 44.5218C198.465 45.3412 198.074 45.7354 197.326 45.7354H186.87V47.7387H198.336C199.184 47.7387 199.606 48.102 199.606 48.8002C199.606 49.5887 199.184 49.9842 198.336 49.9842H186.48C186.742 50.2264 186.871 50.56 186.871 50.9246V51.896H198.956C199.802 51.896 200.226 52.2902 200.226 53.0799C200.226 53.8696 199.802 54.2638 198.956 54.2638H188.24C189.542 54.9621 190.91 55.538 192.31 56.0236C195.015 57.0556 197.392 57.8144 199.477 58.3C199.964 58.4817 200.226 58.9068 200.226 59.6051C200.226 60.3935 199.802 60.789 198.956 60.789C198.792 60.789 198.401 60.7285 197.75 60.6074C195.764 59.94 193.874 59.2109 192.116 58.483C190.325 57.7242 188.565 56.8443 186.871 55.8433V60.0624C186.871 60.8509 186.449 61.2451 185.601 61.2451C184.754 61.2451 184.331 60.8509 184.331 60.0624V56.1164C183.029 56.8147 181.693 57.4214 180.325 57.9071C178.436 58.6659 175.733 59.4853 172.248 60.3948C171.759 60.485 171.466 60.5468 171.368 60.5468C170.522 60.5468 170.098 60.0921 170.098 59.2418C170.098 58.635 170.391 58.2408 170.978 58.0578C174.626 57.2694 177.524 56.4797 179.609 55.7209C180.912 55.2661 182.084 54.7804 183.095 54.2638H171.238C170.392 54.2638 169.968 53.8696 169.968 53.0799C169.968 52.2902 170.392 51.896 171.238 51.896H184.333V50.9246C184.333 50.4995 184.463 50.1658 184.725 49.9842H175.181C173.488 49.9842 172.64 49.1957 172.64 47.6176V40.6377C172.38 40.8799 172.184 41.0615 171.989 41.2135C171.663 41.4557 171.305 41.5781 170.981 41.5781C170.134 41.5781 169.711 41.2444 169.711 40.5153C169.711 40.3633 169.776 40.1211 169.971 39.7874C170.948 38.999 171.796 38.0881 172.545 37.1168C173.326 36.0849 174.011 34.9009 174.532 33.5057C174.629 33.1424 175.02 32.9299 175.671 32.9299C176.517 32.9299 176.974 33.2635 176.974 33.8703H176.97ZM184.331 37.7854H175.114L175.082 37.815C175.148 37.9967 175.179 38.1796 175.179 38.3613V39.4537H184.333V37.7841L184.331 37.7854ZM184.331 41.7005H175.178V43.4603H184.331V41.7005ZM184.331 45.7367H175.178V46.556C175.178 47.3445 175.536 47.74 176.319 47.74H184.33V45.7367H184.331Z" fill="#727171"/>
<path d="M236.032 34.2323C237.763 34.2323 238.627 34.9769 238.627 36.4018V58.8128C238.627 60.3317 237.761 61.1059 236.032 61.1059H213.042C211.31 61.1059 210.447 60.3317 210.447 58.8128V36.4018C210.447 34.9756 211.311 34.2323 213.042 34.2323H236.032ZM224.853 58.4418C224.254 58.2562 223.954 57.9148 223.954 57.357C223.954 56.6137 224.32 56.2104 224.986 56.1486C225.086 56.1486 225.219 56.1795 225.419 56.2414C226.517 56.6755 227.249 56.861 227.581 56.861C228.28 56.861 228.646 56.5828 228.646 56.0236V54.5666H220.695C220.962 54.7843 221.227 55.0007 221.494 55.1875C221.759 55.404 222.092 55.7145 222.525 56.1473C222.591 56.396 222.658 56.6124 222.658 56.861C222.658 57.5425 222.259 57.853 221.494 57.853C221.095 57.853 220.729 57.7912 220.429 57.6057C220.096 57.2643 219.83 56.986 219.63 56.7683C219.431 56.6137 219.232 56.4578 218.998 56.2723C218.731 55.994 218.632 55.7144 218.632 55.4349C218.632 55.0317 218.731 54.7521 218.966 54.5666H214.607C213.875 54.5666 213.543 54.2265 213.543 53.4819C213.543 52.8622 213.876 52.5208 214.607 52.5208H228.647V50.5059C223.823 50.7533 219.232 50.9401 214.84 51.0637C214.14 51.0637 213.808 50.7224 213.808 49.979C213.808 49.3593 214.142 49.0179 214.84 48.987C217.634 48.987 220.263 48.9561 222.791 48.8943V47.7786H216.67C215.438 47.7786 214.84 47.2208 214.84 46.1051V41.8577C214.84 40.8038 215.438 40.2769 216.67 40.2769H222.791V39.3172H215.239C214.539 39.3172 214.207 39.0067 214.207 38.3561C214.207 37.7055 214.541 37.3641 215.239 37.3641H222.791V36.2794H214.34C213.475 36.2794 213.043 36.7445 213.043 37.6128V57.6057C213.043 58.5976 213.475 59.0627 214.34 59.0627H227.018C226.352 58.939 225.653 58.7535 224.855 58.443L224.853 58.4418ZM222.79 43.0661V42.1063H217.467C217.201 42.1063 217.069 42.2609 217.069 42.5714V43.0674H222.791L222.79 43.0661ZM222.79 44.7718H217.068V45.3605C217.068 45.7947 217.201 45.9802 217.465 45.9802H222.789V44.7718H222.79ZM236.032 57.6044V37.6115C236.032 36.7432 235.599 36.2781 234.733 36.2781H225.252V37.3628H233.703C234.368 37.3628 234.733 37.7029 234.733 38.3548C234.733 39.0067 234.368 39.3159 233.703 39.3159H225.252V40.2757H231.873C233.17 40.2757 233.836 40.8026 233.836 41.8564V46.1038C233.836 46.8485 233.569 47.3123 233.037 47.5609C233.336 47.8714 233.603 48.1806 233.869 48.4601C234.202 48.8324 234.6 49.3593 235.132 50.1027C235.199 50.3191 235.266 50.5678 235.266 50.8164C235.266 51.467 234.867 51.7762 234.102 51.7762C233.669 51.7762 233.302 51.7143 233.037 51.5597C232.77 51.0637 232.571 50.6309 232.371 50.2895C232.306 50.3204 232.273 50.3204 232.273 50.3204C231.874 50.3513 231.474 50.3822 231.108 50.3822V52.5208H234.336C235.034 52.5208 235.4 52.8622 235.4 53.4819C235.4 54.2265 235.034 54.5666 234.336 54.5666H231.108V56.9847C231.108 58.1313 230.509 58.8128 229.344 59.0614H234.733C235.599 59.0614 236.032 58.5963 236.032 57.6044ZM225.252 43.0661H231.607V42.5701C231.607 42.2596 231.441 42.105 231.108 42.105H225.252V43.0661ZM231.607 45.3605V44.7718H225.252V45.9802H231.108C231.441 45.9802 231.607 45.7947 231.607 45.3605ZM231.108 48.1509C231.108 47.9963 231.108 47.8727 231.174 47.7786H225.252V48.8324C227.381 48.7706 229.344 48.7088 231.207 48.5838C231.14 48.4292 231.108 48.2746 231.108 48.1496V48.1509Z" fill="#727171"/>
<path d="M31.8064 3.47708C32.7796 3.47708 33.5709 2.69638 33.5709 1.73918C33.5709 0.781989 32.7809 0 31.8064 0C30.832 0 30.0419 0.778124 30.0419 1.73918C30.0419 2.70024 30.8294 3.47708 31.8064 3.47708Z" fill="#C10058"/>
<path d="M37.3366 3.47708C38.3098 3.47708 39.1011 2.69638 39.1011 1.73918C39.1011 0.781989 38.3111 0 37.3366 0C36.3622 0 35.5695 0.778124 35.5695 1.73918C35.5695 2.70024 36.3635 3.47708 37.3366 3.47708Z" fill="#C10058"/>
<path d="M42.804 3.47708C43.7772 3.47708 44.5685 2.69638 44.5685 1.73918C44.5685 0.781989 43.7785 0 42.804 0C41.8296 0 41.0369 0.778124 41.0369 1.73918C41.0369 2.70024 41.8309 3.47708 42.804 3.47708Z" fill="#C10058"/>
<path d="M6.10309 11.3433H3.50934V5.39534H0V20.896H3.50934V14.7972H6.10309V20.896H9.63466V5.39534H6.10309V11.3433Z" fill="#C10058"/>
<path d="M21.3098 17.4601H18.3537V5.39534H14.7829V20.896H24.8845V5.39534H21.3098V17.4601Z" fill="#C10058"/>
<path d="M30.0511 20.896H33.6481V8.91236H35.563V20.896H39.1338V8.91236H41.0042V20.896H44.5973V5.39534H30.0511V20.896Z" fill="#C10058"/>
<path d="M52.2686 5.37988L49.7455 20.896H53.3386L55.209 8.91236H56.3365L58.2069 20.896H61.8261L59.2415 5.39534L52.2686 5.37988Z" fill="#C10058"/>
<path d="M78.0518 5.39534H74.5006L72.5216 9.5011L70.5674 5.39534H66.9482L70.7571 13.1573L66.9482 20.896H70.5674L72.5216 16.816L74.5006 20.896H78.0518L74.2468 13.1573L78.0518 5.39534Z" fill="#C10058"/>
<path d="M240.345 13.5012H87.4104C87.0481 13.5012 86.7551 13.2126 86.7551 12.8558C86.7551 12.4989 87.0481 12.2104 87.4104 12.2104H240.345C240.707 12.2104 241 12.4989 241 12.8558C241 13.2126 240.707 13.5012 240.345 13.5012Z" fill="#9FA0A0"/>
</g>
<defs>
<clipPath id="clip0_1_227">
<rect width="241" height="62" fill="white"/>
</clipPath>
</defs>
</svg>
