<svg width="20" height="20" viewBox="0 0 20 20" fill="none" xmlns="http://www.w3.org/2000/svg">
<path d="M3.33335 3.33333C2.89133 3.33333 2.4674 3.50892 2.15484 3.82148C1.84228 4.13404 1.66669 4.55797 1.66669 4.99999V8.33333C2.10871 8.33333 2.53264 8.50892 2.8452 8.82148C3.15776 9.13404 3.33335 9.55797 3.33335 9.99999C3.33335 10.442 3.15776 10.8659 2.8452 11.1785C2.53264 11.4911 2.10871 11.6667 1.66669 11.6667V15C1.66669 15.442 1.84228 15.8659 2.15484 16.1785C2.4674 16.4911 2.89133 16.6667 3.33335 16.6667H16.6667C17.1087 16.6667 17.5326 16.4911 17.8452 16.1785C18.1578 15.8659 18.3334 15.442 18.3334 15V11.6667C17.8913 11.6667 17.4674 11.4911 17.1548 11.1785C16.8423 10.8659 16.6667 10.442 16.6667 9.99999C16.6667 9.55797 16.8423 9.13404 17.1548 8.82148C17.4674 8.50892 17.8913 8.33333 18.3334 8.33333V4.99999C18.3334 4.55797 18.1578 4.13404 17.8452 3.82148C17.5326 3.50892 17.1087 3.33333 16.6667 3.33333H3.33335ZM12.9167 5.83333L14.1667 7.08333L7.08335 14.1667L5.83335 12.9167L12.9167 5.83333ZM7.34169 5.86666C8.15835 5.86666 8.81669 6.525 8.81669 7.34166C8.81669 7.73286 8.66129 8.10803 8.38467 8.38464C8.10805 8.66126 7.73288 8.81666 7.34169 8.81666C6.52502 8.81666 5.86669 8.15833 5.86669 7.34166C5.86669 6.95047 6.02209 6.5753 6.2987 6.29868C6.57532 6.02206 6.95049 5.86666 7.34169 5.86666ZM12.6584 11.1833C13.475 11.1833 14.1334 11.8417 14.1334 12.6583C14.1334 13.0495 13.978 13.4247 13.7013 13.7013C13.4247 13.9779 13.0495 14.1333 12.6584 14.1333C11.8417 14.1333 11.1834 13.475 11.1834 12.6583C11.1834 12.2671 11.3388 11.892 11.6154 11.6153C11.892 11.3387 12.2672 11.1833 12.6584 11.1833Z" fill="white"/>
</svg>
