<svg width="20" height="20" viewBox="0 0 20 20" fill="none" xmlns="http://www.w3.org/2000/svg">
<path d="M10.3281 3.71133C8.93749 3.70898 7.19531 4.14844 5.47656 5.04297C3.76054 5.9375 2.40039 7.10938 1.60195 8.25391C0.803119 9.39453 0.587104 10.457 0.980073 11.2148C1.37343 11.9688 2.36796 12.4023 3.7621 12.4023C5.15624 12.4063 6.89843 11.9648 8.61328 11.0742C10.332 10.1797 11.6914 9.00391 12.4883 7.86328C13.2891 6.72266 13.5 5.66016 13.1094 4.90234C12.7148 4.14844 11.7227 3.71133 10.3281 3.71133ZM13.918 6.45703C13.7812 7.05469 13.4844 7.66797 13.0664 8.26563C12.1836 9.52734 10.7422 10.7578 8.93749 11.6953C7.13281 12.6367 5.30078 13.1094 3.76171 13.1094C3.03515 13.1094 2.36171 13 1.79414 12.7695L2.20781 13.5664C2.60156 14.3242 3.59335 14.7578 4.98828 14.7578C6.38281 14.7578 8.12499 14.3203 9.83984 13.4258C11.5586 12.5352 12.918 11.3594 13.7148 10.2148C14.5117 9.07422 14.7305 8.01172 14.3359 7.25781L13.918 6.45703ZM15.043 7.11328C15.4805 8.15625 15.1289 9.42578 14.293 10.6172C13.5547 11.6758 12.4258 12.7031 11.0273 13.5625C11.4609 13.6094 11.9141 13.6328 12.375 13.6328C14.3086 13.6328 16.0586 13.2187 17.293 12.5742C18.5312 11.9297 19.2109 11.0859 19.2109 10.2344C19.2109 9.38281 18.5312 8.53906 17.293 7.89453C16.6641 7.56641 15.8984 7.29688 15.043 7.11328ZM19.2109 11.9883C18.8125 12.4531 18.2656 12.8633 17.6211 13.1992C16.2539 13.9102 14.4102 14.3359 12.375 14.3359C11.5469 14.3359 10.75 14.2656 10.0039 14.1328C9.09765 14.5898 8.18749 14.9297 7.31249 15.1523C7.35937 15.1797 7.40624 15.2031 7.45703 15.2305C8.6914 15.875 10.4414 16.2891 12.375 16.2891C14.3086 16.2891 16.0586 15.875 17.293 15.2305C18.5312 14.5859 19.2109 13.7422 19.2109 12.8906V11.9883Z" fill="white"/>
</svg>
