<svg width="20" height="20" viewBox="0 0 20 20" fill="none" xmlns="http://www.w3.org/2000/svg">
<path d="M9.16667 2.5C9.58715 2.49987 9.99214 2.65867 10.3005 2.94458C10.6088 3.23049 10.7976 3.62237 10.8292 4.04167L10.8333 4.16667V9.16667C10.8335 9.58715 10.6747 9.99214 10.3888 10.3005C10.1028 10.6088 9.71096 10.7976 9.29167 10.8292L9.16667 10.8333H4.16667C3.74619 10.8335 3.34119 10.6747 3.03288 10.3888C2.72456 10.1028 2.5357 9.71096 2.50417 9.29167L2.5 9.16667V4.16667C2.49987 3.74619 2.65867 3.34119 2.94458 3.03288C3.23049 2.72456 3.62237 2.5357 4.04167 2.50417L4.16667 2.5H9.16667ZM9.16667 4.16667H4.16667V9.16667H9.16667V4.16667ZM7.91667 5C8.01419 4.99997 8.10863 5.03414 8.18355 5.09657C8.25847 5.15901 8.30911 5.24574 8.32667 5.34167L8.33333 5.41667V7.91667C8.33337 8.01419 8.29919 8.10863 8.23676 8.18355C8.17433 8.25847 8.08759 8.30911 7.99167 8.32667L7.91667 8.33333H5.41667C5.31915 8.33337 5.2247 8.29919 5.14978 8.23676C5.07487 8.17433 5.02422 8.08759 5.00667 7.99167L5 7.91667V5.41667C4.99997 5.31915 5.03414 5.2247 5.09657 5.14978C5.15901 5.07487 5.24574 5.02422 5.34167 5.00667L5.41667 5H7.91667ZM17.5 4.16667C17.5 3.72464 17.3244 3.30072 17.0118 2.98816C16.6993 2.67559 16.2754 2.5 15.8333 2.5H14.1667C13.7246 2.5 13.3007 2.67559 12.9882 2.98816C12.6756 3.30072 12.5 3.72464 12.5 4.16667V5.83333C12.5 6.27536 12.6756 6.69928 12.9882 7.01184C13.3007 7.3244 13.7246 7.5 14.1667 7.5H15.8333C16.2754 7.5 16.6993 7.3244 17.0118 7.01184C17.3244 6.69928 17.5 6.27536 17.5 5.83333V4.16667ZM2.5 14.1667C2.5 13.7246 2.67559 13.3007 2.98816 12.9882C3.30072 12.6756 3.72464 12.5 4.16667 12.5H5.83333C6.27536 12.5 6.69928 12.6756 7.01184 12.9882C7.3244 13.3007 7.5 13.7246 7.5 14.1667V15.8333C7.5 16.2754 7.3244 16.6993 7.01184 17.0118C6.69928 17.3244 6.27536 17.5 5.83333 17.5H4.16667C3.72464 17.5 3.30072 17.3244 2.98816 17.0118C2.67559 16.6993 2.5 16.2754 2.5 15.8333V14.1667ZM15.8333 12.5C16.2754 12.5 16.6993 12.6756 17.0118 12.9882C17.3244 13.3007 17.5 13.7246 17.5 14.1667V15.8333C17.5 16.2754 17.3244 16.6993 17.0118 17.0118C16.6993 17.3244 16.2754 17.5 15.8333 17.5H14.1667C13.7246 17.5 13.3007 17.3244 12.9882 17.0118C12.6756 16.6993 12.5 16.2754 12.5 15.8333V14.1667C12.5 13.7246 12.6756 13.3007 12.9882 12.9882C13.3007 12.6756 13.7246 12.5 14.1667 12.5H15.8333ZM12.5 10C12.5 9.77899 12.5878 9.56702 12.7441 9.41074C12.9004 9.25446 13.1123 9.16667 13.3333 9.16667H16.6667C16.8877 9.16667 17.0996 9.25446 17.2559 9.41074C17.4122 9.56702 17.5 9.77899 17.5 10C17.5 10.221 17.4122 10.433 17.2559 10.5893C17.0996 10.7455 16.8877 10.8333 16.6667 10.8333H13.3333C13.1123 10.8333 12.9004 10.7455 12.7441 10.5893C12.5878 10.433 12.5 10.221 12.5 10ZM10.8333 13.3333C10.8333 13.1123 10.7455 12.9004 10.5893 12.7441C10.433 12.5878 10.221 12.5 10 12.5C9.77899 12.5 9.56702 12.5878 9.41074 12.7441C9.25446 12.9004 9.16667 13.1123 9.16667 13.3333V16.6667C9.16667 16.8877 9.25446 17.0996 9.41074 17.2559C9.56702 17.4122 9.77899 17.5 10 17.5C10.221 17.5 10.433 17.4122 10.5893 17.2559C10.7455 17.0996 10.8333 16.8877 10.8333 16.6667V13.3333Z" fill="white"/>
</svg>
