<svg width="48" height="48" viewBox="0 0 48 48" fill="none" xmlns="http://www.w3.org/2000/svg">
<path d="M43.828 23.006C43.5794 24.5506 43.0623 26.0398 42.3 27.406C41.942 28.054 40.188 30.522 39.65 31.174C36.694 34.75 31.744 38.876 23.466 42.888C23.2904 42.9735 23.095 43.0102 22.9003 42.9943C22.7056 42.9784 22.5187 42.9105 22.3593 42.7977C22.1998 42.6848 22.0736 42.5312 21.9939 42.3529C21.9141 42.1746 21.8838 41.9781 21.906 41.784L22.326 38.014C22.3424 37.8712 22.3304 37.7265 22.2906 37.5883C22.2509 37.4502 22.1842 37.3213 22.0944 37.209C22.0046 37.0967 21.8935 37.0033 21.7675 36.9341C21.6414 36.865 21.5029 36.8214 21.36 36.806C11.562 35.776 4 29.08 4 20.972C4 12.152 12.952 5 23.994 5C34.726 5 43.482 11.754 43.968 20.23C43.982 20.476 44.02 21.262 43.988 21.79C43.966 22.11 43.92 22.52 43.828 23.006ZM13 24.206V17.48C13.0061 17.3419 12.9842 17.2039 12.9355 17.0745C12.8869 16.945 12.8125 16.8268 12.7169 16.7269C12.6213 16.6269 12.5065 16.5474 12.3793 16.4931C12.2521 16.4388 12.1153 16.4108 11.977 16.4108C11.8387 16.4108 11.7019 16.4388 11.5747 16.4931C11.4475 16.5474 11.3327 16.6269 11.2371 16.7269C11.1415 16.8268 11.0671 16.945 11.0185 17.0745C10.9698 17.2039 10.9479 17.3419 10.954 17.48V25.234C10.954 25.802 11.414 26.262 11.978 26.262H16.068C16.3404 26.262 16.6016 26.1538 16.7942 25.9612C16.9868 25.7686 17.095 25.5074 17.095 25.235C17.095 24.9626 16.9868 24.7014 16.7942 24.5088C16.6016 24.3162 16.3404 24.208 16.068 24.208H13V24.206ZM19.308 26.262C19.4132 26.262 19.5174 26.2412 19.6146 26.2009C19.7118 26.1606 19.8001 26.1015 19.8744 26.027C19.9487 25.9525 20.0076 25.8641 20.0477 25.7668C20.0878 25.6695 20.1083 25.5652 20.108 25.46V17.256C20.1085 17.1506 20.0882 17.0461 20.0483 16.9486C20.0083 16.8511 19.9494 16.7624 19.8751 16.6877C19.8008 16.613 19.7124 16.5537 19.6151 16.5133C19.5178 16.4728 19.4134 16.452 19.308 16.452H18.862C18.7566 16.452 18.6522 16.4728 18.5549 16.5133C18.4576 16.5537 18.3692 16.613 18.2949 16.6877C18.2206 16.7624 18.1617 16.8511 18.1217 16.9486C18.0818 17.0461 18.0615 17.1506 18.062 17.256V25.46C18.062 25.6722 18.1463 25.8757 18.2963 26.0257C18.4463 26.1757 18.6498 26.26 18.862 26.26L19.308 26.262ZM27.574 17.48V22.218C27.574 22.218 23.49 16.866 23.426 16.798C23.3272 16.6841 23.2039 16.5939 23.0654 16.5343C22.9269 16.4748 22.7767 16.4473 22.626 16.454C22.3563 16.4719 22.1039 16.5927 21.9207 16.7915C21.7376 16.9903 21.6378 17.2518 21.642 17.522V25.234C21.6359 25.3721 21.6578 25.5101 21.7065 25.6395C21.7551 25.769 21.8295 25.8872 21.9251 25.9871C22.0207 26.0871 22.1355 26.1666 22.2627 26.2209C22.3899 26.2752 22.5267 26.3032 22.665 26.3032C22.8033 26.3032 22.9401 26.2752 23.0673 26.2209C23.1945 26.1666 23.3093 26.0871 23.4049 25.9871C23.5005 25.8872 23.5749 25.769 23.6235 25.6395C23.6722 25.5101 23.6941 25.3721 23.688 25.234V20.526C23.688 20.526 27.834 25.922 27.896 25.98C28.076 26.152 28.318 26.26 28.588 26.26C29.156 26.266 29.62 25.762 29.62 25.192V17.48C29.6261 17.3419 29.6042 17.2039 29.5555 17.0745C29.5069 16.945 29.4325 16.8268 29.3369 16.7269C29.2413 16.6269 29.1265 16.5474 28.9993 16.4931C28.8721 16.4388 28.7353 16.4108 28.597 16.4108C28.4587 16.4108 28.3219 16.4388 28.1947 16.4931C28.0675 16.5474 27.9527 16.6269 27.8571 16.7269C27.7615 16.8268 27.6871 16.945 27.6385 17.0745C27.5898 17.2039 27.5679 17.3419 27.574 17.48ZM37.29 17.48C37.2911 17.345 37.2653 17.2112 37.2143 17.0863C37.1633 16.9613 37.0879 16.8478 36.9927 16.7522C36.8974 16.6565 36.7842 16.5808 36.6594 16.5292C36.5347 16.4777 36.401 16.4515 36.266 16.452H32.176C32.0412 16.4517 31.9077 16.4782 31.7832 16.5298C31.6587 16.5815 31.5456 16.6573 31.4506 16.7529C31.3556 16.8485 31.2804 16.9619 31.2295 17.0867C31.1786 17.2116 31.1529 17.3452 31.154 17.48V25.234C31.154 25.802 31.612 26.262 32.176 26.262H36.266C36.5384 26.262 36.7996 26.1538 36.9922 25.9612C37.1848 25.7686 37.293 25.5074 37.293 25.235C37.293 24.9626 37.1848 24.7014 36.9922 24.5088C36.7996 24.3162 36.5384 24.208 36.266 24.208H33.2V22.384H36.268C36.5404 22.384 36.8016 22.2758 36.9942 22.0832C37.1868 21.8906 37.295 21.6294 37.295 21.357C37.295 21.0846 37.1868 20.8234 36.9942 20.6308C36.8016 20.4382 36.5404 20.33 36.268 20.33H33.2V18.506H36.268C36.834 18.506 37.29 18.046 37.29 17.48Z" fill="#2A2A2A"/>
</svg>
