<svg width="18" height="18" viewBox="0 0 18 18" fill="none" xmlns="http://www.w3.org/2000/svg">
<path d="M6.83027 4.086C7.27877 2.7735 9.09227 2.73375 9.62402 3.96675L9.66902 4.08675L10.2743 5.85675C10.413 6.26267 10.6371 6.63413 10.9316 6.94607C11.2261 7.258 11.584 7.50316 11.9813 7.665L12.144 7.72575L13.914 8.33025C15.2265 8.77875 15.2663 10.5922 14.034 11.124L13.914 11.169L12.144 11.7742C11.738 11.9129 11.3663 12.137 11.0543 12.4314C10.7422 12.7259 10.4969 13.0839 10.335 13.4812L10.2743 13.6432L9.66977 15.414C9.22127 16.7265 7.40777 16.7662 6.87677 15.534L6.83027 15.414L6.22577 13.644C6.08715 13.2379 5.86305 12.8663 5.56857 12.5543C5.2741 12.2422 4.91611 11.9969 4.51877 11.835L4.35677 11.7742L2.58677 11.1697C1.27352 10.7212 1.23377 8.90775 2.46677 8.37675L2.58677 8.33025L4.35677 7.72575C4.76269 7.58704 5.13415 7.3629 5.44608 7.06843C5.75802 6.77396 6.00318 6.41602 6.16502 6.01875L6.22577 5.85675L6.83027 4.086ZM14.25 1.5C14.3903 1.5 14.5278 1.53936 14.6469 1.6136C14.7659 1.68785 14.8618 1.794 14.9235 1.92L14.9595 2.00775L15.222 2.77725L15.9923 3.03975C16.1329 3.08752 16.2561 3.17596 16.3464 3.29386C16.4367 3.41176 16.49 3.55381 16.4995 3.70202C16.509 3.85022 16.4742 3.9979 16.3997 4.12634C16.3251 4.25478 16.2141 4.3582 16.0808 4.4235L15.9923 4.4595L15.2228 4.722L14.9603 5.49225C14.9124 5.63282 14.8239 5.75602 14.706 5.84624C14.588 5.93646 14.4459 5.98964 14.2977 5.99904C14.1496 6.00844 14.0019 5.97363 13.8735 5.89903C13.7451 5.82443 13.6417 5.7134 13.5765 5.58L13.5405 5.49225L13.278 4.72275L12.5078 4.46025C12.3672 4.41248 12.2439 4.32404 12.1536 4.20614C12.0633 4.08824 12.01 3.94619 12.0006 3.79798C11.9911 3.64978 12.0258 3.5021 12.1004 3.37366C12.1749 3.24522 12.2859 3.1418 12.4193 3.0765L12.5078 3.0405L13.2773 2.778L13.5398 2.00775C13.5903 1.85957 13.686 1.73093 13.8134 1.63987C13.9408 1.54882 14.0934 1.49991 14.25 1.5Z" fill="white"/>
</svg>
