<svg width="48" height="48" viewBox="0 0 48 48" fill="none" xmlns="http://www.w3.org/2000/svg">
<path d="M24 3.75342C12.9543 3.75342 4 12.7077 4 23.7534C4 34.7991 12.9543 43.7534 24 43.7534C35.0457 43.7534 44 34.7991 44 23.7534C44 12.7077 35.0457 3.75342 24 3.75342ZM16.8125 11.6978C17.2246 11.6735 17.597 11.9198 17.8794 12.3569L20.6138 17.5425C20.9017 18.1569 20.7381 18.8149 20.3086 19.2539L19.0562 20.5063C18.9789 20.6123 18.928 20.7316 18.9268 20.8628C19.4071 22.7219 20.864 24.4369 22.1495 25.6162C23.4349 26.7955 24.8164 28.3922 26.6099 28.7705C26.8315 28.8323 27.1031 28.8545 27.2617 28.7071L28.7168 27.2251C29.2191 26.8444 29.9457 26.6599 30.4819 26.9712H30.5063L35.4404 29.8838C36.1646 30.3378 36.2397 31.2153 35.7211 31.7491L32.3228 35.1206C31.8209 35.6353 31.1542 35.8083 30.5064 35.8091C27.6415 35.7233 24.9345 34.3171 22.711 32.8721C19.0613 30.217 15.7136 26.9239 13.6118 22.9453C12.8058 21.277 11.8589 19.1483 11.9492 17.2862C11.9573 16.5857 12.1468 15.8994 12.6402 15.4478L16.0386 12.0494C16.3033 11.8241 16.5652 11.7124 16.8125 11.6978Z" fill="#2A2A2A"/>
</svg>
